<?xml version="1.0" encoding="utf-8"?>
<!-- Generator: Adobe Illustrator 25.0.1, SVG Export Plug-In . SVG Version: 6.00 Build 0)  -->
<svg version="1.1" id="Capa_1" xmlns="http://www.w3.org/2000/svg" xmlns:xlink="http://www.w3.org/1999/xlink" x="0px" y="0px"
	 viewBox="0 0 305 54" style="enable-background:new 0 0 305 54;" xml:space="preserve">
<style type="text/css">
	.st0{enable-background:new    ;}
	.st1{fill:#FFFFFF;}
</style>
<g class="st0">
	<path class="st1" d="M4.6,43V11.9h9c1.8,0,3.3,0.2,4.6,0.5s2.4,0.9,3.2,1.6c0.9,0.7,1.5,1.5,1.9,2.5s0.6,2.1,0.6,3.3
		c0,0.8-0.1,1.6-0.4,2.4c-0.3,0.8-0.7,1.5-1.2,2.1c-0.5,0.6-1.2,1.2-2,1.7s-1.7,0.8-2.7,1.1c2.4,0.4,4.3,1.2,5.7,2.4s2,2.9,2,5
		c0,1.3-0.2,2.5-0.7,3.6c-0.5,1.1-1.2,2-2,2.7s-2,1.3-3.3,1.7c-1.3,0.4-2.8,0.6-4.4,0.6H4.6z M6.9,26.4h6.8c1.4,0,2.7-0.2,3.7-0.5
		c1-0.4,1.9-0.9,2.5-1.5c0.7-0.6,1.1-1.3,1.4-2c0.3-0.8,0.5-1.5,0.5-2.4c0-2.1-0.7-3.7-2-4.8c-1.3-1.1-3.4-1.6-6.1-1.6H6.9
		C6.9,13.7,6.9,26.4,6.9,26.4z M6.9,28.1v13.1h7.8c2.7,0,4.8-0.6,6.2-1.8c1.4-1.2,2.1-2.8,2.1-5c0-1-0.2-1.9-0.6-2.7
		c-0.4-0.8-0.9-1.5-1.6-2s-1.6-1-2.6-1.3c-1-0.3-2.2-0.4-3.5-0.4L6.9,28.1L6.9,28.1z"/>
	<path class="st1" d="M35.9,43h-2.3V11.9h2.3V43z"/>
	<path class="st1" d="M64.6,11.9v1.9H48.2v12.6h13.6v1.8H48.2v13h16.4V43H46V11.9H64.6z"/>
	<path class="st1" d="M73.6,11.9c0.1,0.1,0.2,0.2,0.4,0.3l20.2,27c0-0.4-0.1-0.9-0.1-1.3V11.9h2V43h-1.1c-0.3,0-0.6-0.1-0.8-0.4
		l-20.2-27c0,0.4,0.1,0.9,0.1,1.3V43h-2V11.9h1.1C73.3,11.9,73.4,11.9,73.6,11.9z"/>
	<path class="st1" d="M123.9,11.9v1.9h-16.4v12.6h13.6v1.8h-13.6v13h16.4V43h-18.7V11.9H123.9z"/>
	<path class="st1" d="M146.3,15.7c-0.1,0.2-0.3,0.4-0.6,0.4c-0.2,0-0.4-0.1-0.7-0.4s-0.7-0.6-1.2-0.9s-1.2-0.6-1.9-0.9
		c-0.8-0.3-1.7-0.4-2.9-0.4s-2.1,0.2-3,0.5c-0.9,0.3-1.6,0.8-2.2,1.3c-0.6,0.6-1,1.2-1.3,1.9s-0.5,1.5-0.5,2.3
		c0,1.1,0.2,1.9,0.7,2.6c0.4,0.7,1,1.3,1.8,1.8c0.7,0.5,1.6,0.9,2.5,1.2s1.9,0.7,2.9,1s1.9,0.7,2.9,1.1s1.8,0.9,2.5,1.5
		c0.7,0.6,1.3,1.3,1.8,2.2c0.4,0.9,0.7,1.9,0.7,3.2c0,1.3-0.2,2.5-0.7,3.7c-0.4,1.2-1.1,2.2-1.9,3c-0.9,0.9-1.9,1.5-3.1,2
		s-2.6,0.7-4.2,0.7c-2.1,0-3.8-0.4-5.3-1.1c-1.5-0.7-2.8-1.7-3.9-3l0.6-1c0.2-0.2,0.4-0.3,0.6-0.3c0.1,0,0.3,0.1,0.5,0.3
		s0.5,0.4,0.7,0.6c0.3,0.3,0.6,0.5,1.1,0.8s0.9,0.6,1.4,0.8s1.2,0.5,1.9,0.6s1.5,0.3,2.4,0.3c1.2,0,2.3-0.2,3.3-0.6s1.8-0.9,2.5-1.5
		c0.7-0.6,1.2-1.4,1.5-2.3c0.4-0.9,0.5-1.8,0.5-2.8c0-1.1-0.2-2-0.7-2.7c-0.4-0.7-1-1.3-1.8-1.8c-0.7-0.5-1.6-0.9-2.5-1.2
		c-0.9-0.3-1.9-0.6-2.9-0.9c-1-0.3-1.9-0.7-2.9-1c-0.9-0.4-1.8-0.9-2.5-1.5c-0.7-0.6-1.3-1.3-1.8-2.2c-0.4-0.9-0.7-2-0.7-3.3
		c0-1,0.2-2,0.6-3c0.4-1,1-1.8,1.7-2.6c0.8-0.7,1.7-1.3,2.8-1.8s2.4-0.7,3.8-0.7c1.6,0,3.1,0.3,4.4,0.8s2.5,1.3,3.5,2.4L146.3,15.7z
		"/>
</g>
<g class="st0">
	<path class="st1" d="M158.9,30.6V43H153V11.2h9.7c2.2,0,4,0.2,5.6,0.7c1.5,0.4,2.8,1.1,3.8,1.9s1.7,1.8,2.2,2.9s0.7,2.4,0.7,3.7
		c0,1.1-0.2,2.1-0.5,3c-0.3,1-0.8,1.8-1.4,2.6c-0.6,0.8-1.3,1.5-2.2,2c-0.9,0.6-1.9,1.1-3,1.4c0.7,0.4,1.4,1,1.9,1.8l8,11.7h-5.3
		c-0.5,0-0.9-0.1-1.3-0.3c-0.4-0.2-0.7-0.5-0.9-0.9l-6.7-10.2c-0.2-0.4-0.5-0.7-0.8-0.8c-0.3-0.2-0.7-0.2-1.3-0.2
		C161.5,30.6,158.9,30.6,158.9,30.6z M158.9,26.3h3.7c1.1,0,2.1-0.1,2.9-0.4s1.5-0.7,2-1.2c0.5-0.5,0.9-1.1,1.2-1.7
		c0.3-0.7,0.4-1.4,0.4-2.2c0-1.6-0.5-2.9-1.6-3.7c-1.1-0.9-2.7-1.3-4.9-1.3h-3.8V26.3z"/>
	<path class="st1" d="M209.6,43H205c-0.5,0-0.9-0.1-1.3-0.4s-0.6-0.6-0.7-1l-2.4-6.5h-13.2l-2.4,6.5c-0.1,0.3-0.3,0.6-0.7,0.9
		c-0.3,0.3-0.8,0.4-1.3,0.4h-4.6l12.5-31.8h6.1L209.6,43z M189,31h10.1l-3.9-10.6c-0.2-0.5-0.4-1-0.6-1.7s-0.4-1.3-0.6-2.1
		c-0.2,0.7-0.4,1.4-0.6,2.1c-0.2,0.6-0.4,1.2-0.6,1.7L189,31z"/>
	<path class="st1" d="M219.6,43h-5.9V11.2h5.9V43z"/>
	<path class="st1" d="M248.6,35.5c0.3,0,0.6,0.1,0.8,0.4l2.3,2.5c-1.3,1.6-2.9,2.8-4.8,3.7s-4.1,1.3-6.8,1.3c-2.4,0-4.5-0.4-6.4-1.2
		c-1.9-0.8-3.5-1.9-4.8-3.4c-1.3-1.4-2.4-3.2-3.1-5.1c-0.7-2-1.1-4.2-1.1-6.5c0-2.4,0.4-4.6,1.2-6.6c0.8-2,1.9-3.7,3.3-5.1
		c1.4-1.4,3.2-2.6,5.2-3.4s4.2-1.2,6.6-1.2c2.4,0,4.4,0.4,6.2,1.1c1.8,0.8,3.3,1.8,4.5,3l-2,2.7c-0.1,0.2-0.3,0.3-0.5,0.5
		c-0.2,0.1-0.4,0.2-0.8,0.2c-0.3,0-0.7-0.1-1-0.4c-0.4-0.3-0.8-0.6-1.3-0.9s-1.2-0.6-2.1-0.9c-0.8-0.3-1.9-0.4-3.2-0.4
		c-1.5,0-2.9,0.3-4.1,0.8s-2.3,1.3-3.2,2.2c-0.9,1-1.6,2.1-2.1,3.5c-0.5,1.4-0.8,2.9-0.8,4.7c0,1.8,0.3,3.4,0.8,4.8
		c0.5,1.4,1.2,2.6,2.1,3.5c0.9,1,1.9,1.7,3.1,2.2s2.4,0.8,3.8,0.8c0.8,0,1.5,0,2.2-0.1c0.7-0.1,1.3-0.2,1.8-0.4
		c0.6-0.2,1.1-0.4,1.6-0.7c0.5-0.3,1-0.7,1.5-1.1c0.1-0.1,0.3-0.2,0.5-0.3C248.2,35.5,248.4,35.5,248.6,35.5z"/>
	<path class="st1" d="M276.3,11.2v4.7h-14.1v8.8h11.1v4.6h-11.1v9h14.1V43h-20.1V11.2H276.3z"/>
	<path class="st1" d="M298.4,17c-0.2,0.3-0.4,0.6-0.6,0.7c-0.2,0.1-0.5,0.2-0.8,0.2c-0.3,0-0.6-0.1-1-0.3c-0.4-0.2-0.8-0.5-1.3-0.8
		c-0.5-0.3-1.1-0.5-1.7-0.8c-0.7-0.2-1.5-0.3-2.4-0.3c-0.8,0-1.5,0.1-2.1,0.3c-0.6,0.2-1.1,0.5-1.5,0.8c-0.4,0.4-0.7,0.8-0.9,1.3
		c-0.2,0.5-0.3,1-0.3,1.6c0,0.7,0.2,1.4,0.6,1.9c0.4,0.5,1,0.9,1.7,1.3c0.7,0.4,1.5,0.7,2.4,0.9s1.8,0.6,2.7,0.9
		c0.9,0.3,1.8,0.7,2.7,1.1c0.9,0.4,1.7,0.9,2.4,1.6c0.7,0.6,1.2,1.4,1.7,2.3s0.6,2,0.6,3.4c0,1.4-0.2,2.8-0.7,4s-1.2,2.3-2.2,3.3
		c-0.9,0.9-2.1,1.7-3.5,2.2c-1.4,0.5-2.9,0.8-4.7,0.8c-1,0-2-0.1-3-0.3c-1-0.2-1.9-0.5-2.8-0.8c-0.9-0.4-1.7-0.8-2.5-1.3
		c-0.8-0.5-1.5-1.1-2.1-1.7l1.7-2.8c0.2-0.2,0.4-0.4,0.6-0.5s0.5-0.2,0.8-0.2c0.4,0,0.8,0.2,1.2,0.5c0.4,0.3,0.9,0.6,1.5,1
		c0.6,0.4,1.3,0.7,2,1c0.8,0.3,1.7,0.5,2.8,0.5c1.7,0,3-0.4,3.9-1.2c0.9-0.8,1.4-1.9,1.4-3.4c0-0.8-0.2-1.5-0.6-2
		c-0.4-0.5-1-1-1.7-1.3c-0.7-0.4-1.5-0.7-2.4-0.9s-1.8-0.5-2.7-0.8c-0.9-0.3-1.8-0.6-2.7-1.1c-0.9-0.4-1.7-0.9-2.4-1.6
		c-0.7-0.7-1.2-1.5-1.7-2.5s-0.6-2.2-0.6-3.7c0-1.2,0.2-2.3,0.7-3.4c0.5-1.1,1.1-2.1,2-2.9s2-1.5,3.3-2c1.3-0.5,2.8-0.8,4.4-0.8
		c1.9,0,3.6,0.3,5.2,0.9c1.6,0.6,2.9,1.4,4,2.5L298.4,17z"/>
</g>
</svg>
